<svg xmlns="http://www.w3.org/2000/svg" xmlns:xlink="http://www.w3.org/1999/xlink" version="1.1" x="0px" y="0px" viewBox="0 0 90 112.5" enable-background="new 0 0 90 90" xml:space="preserve"><path d="M71.693,10.919C64.415,3.64,54.874,0,45.333,0S26.251,3.64,18.972,10.919c-14.558,14.558-14.558,38.163,0,52.72L45.333,90  l26.36-26.36C86.252,49.082,86.252,25.478,71.693,10.919z M68.213,60.16c-6.111,6.111-14.237,9.478-22.88,9.478  c-1.976,0-3.923-0.186-5.827-0.529l-5.135-1.368c-4.43-1.591-8.491-4.153-11.918-7.58c-6.112-6.111-9.478-14.237-9.478-22.88  c0-8.644,3.366-16.769,9.478-22.88c6.111-6.112,14.237-9.478,22.88-9.478c8.643,0,16.769,3.366,22.88,9.478  c6.112,6.111,9.478,14.237,9.478,22.88C77.69,45.923,74.325,54.049,68.213,60.16z M57.967,13.411L45.333,9.355l-12.634,4.057  l-1.306,3.204l3.382,2.773c2.539-2.233,6.33-3.654,10.559-3.654c4.229,0,8.02,1.421,10.558,3.654l3.382-2.773L57.967,13.411z   M46.564,13.344c0,0.68-0.552,1.231-1.232,1.231c-0.681,0-1.231-0.551-1.231-1.231v-1.679h2.463V13.344z M55.167,20.522  c-0.027-0.025-0.058-0.049-0.086-0.074c0.002,0,0.002,0,0.003-0.001c-0.059-0.052-0.12-0.102-0.181-0.153  c-0.069-0.059-0.137-0.118-0.209-0.176c-0.077-0.064-0.157-0.125-0.237-0.186c-0.073-0.056-0.147-0.113-0.222-0.168  c-0.084-0.061-0.169-0.119-0.254-0.178c-0.077-0.052-0.152-0.105-0.229-0.157c-0.091-0.06-0.184-0.116-0.276-0.173  c-0.075-0.048-0.153-0.096-0.231-0.142c-0.099-0.058-0.198-0.114-0.298-0.169c-0.077-0.043-0.152-0.084-0.231-0.126  c-0.105-0.056-0.215-0.11-0.323-0.164c-0.075-0.036-0.15-0.073-0.225-0.11c-0.118-0.054-0.235-0.107-0.354-0.159  c-0.072-0.031-0.143-0.062-0.215-0.092c-0.126-0.053-0.255-0.104-0.385-0.153c-0.038-0.015-0.074-0.032-0.113-0.046  c0.002,0.001,0.004,0.002,0.005,0.005c-1.727-0.65-3.689-1.02-5.772-1.02c-2.082,0-4.045,0.37-5.772,1.02  c0.001-0.002,0.003-0.004,0.004-0.005c-0.038,0.014-0.074,0.031-0.113,0.045c-0.129,0.05-0.259,0.101-0.386,0.155  c-0.07,0.029-0.14,0.06-0.209,0.09c-0.122,0.053-0.242,0.107-0.36,0.163c-0.073,0.035-0.144,0.07-0.216,0.105  c-0.112,0.055-0.224,0.112-0.333,0.168c-0.074,0.04-0.147,0.081-0.221,0.121c-0.104,0.058-0.207,0.115-0.309,0.175  c-0.074,0.043-0.146,0.089-0.219,0.134c-0.097,0.06-0.194,0.121-0.288,0.182c-0.074,0.048-0.144,0.097-0.214,0.146  c-0.091,0.063-0.182,0.125-0.27,0.19c-0.07,0.05-0.136,0.103-0.205,0.155c-0.086,0.066-0.172,0.132-0.255,0.2  c-0.065,0.052-0.126,0.106-0.189,0.159c-0.064,0.057-0.132,0.11-0.196,0.167c0.001,0,0.002,0,0.003,0  c-0.027,0.025-0.059,0.05-0.086,0.076c-0.715,1.456-1.121,3.094-1.121,4.828c0,6.05,4.905,10.954,10.956,10.954  c6.05,0,10.954-4.904,10.954-10.954C56.287,23.617,55.883,21.979,55.167,20.522z M45.333,34.626c-5.115,0-9.276-4.161-9.276-9.274  c0-1.539,0.379-2.988,1.046-4.267c2.429,0.916,5.231,1.448,8.23,1.448c2.998,0,5.803-0.532,8.229-1.448  c0.667,1.279,1.045,2.728,1.045,4.267C54.607,30.465,50.448,34.626,45.333,34.626z M66.823,57.337  c0.003,0.019,0.009,0.037,0.009,0.058c0,1.982-9.622,3.59-21.494,3.59s-21.494-1.607-21.494-3.59  c-0.005-0.145-0.01-0.289-0.01-0.434c0-9.195,4.415-17.197,10.945-21.419c0.199,0.207,0.404,0.405,0.614,0.599l9.939,9.66  l9.946-9.668c0.208-0.191,0.413-0.388,0.609-0.592c6.528,4.222,10.943,12.225,10.943,21.42  C66.832,57.087,66.827,57.212,66.823,57.337z"/></svg>